<svg version="1.1" id="Layer_1" xmlns="http://www.w3.org/2000/svg" xmlns:xlink="http://www.w3.org/1999/xlink" x="0px" y="0px"
	 width="100%" viewBox="0 0 290 99" enable-background="new 0 0 290 99" xml:space="preserve">
<path fill="#47704C" opacity="1.000000" stroke="none" 
	d="
M224.000000,100.000000 
	C149.333359,100.000000 75.166710,100.000000 1.000050,100.000000 
	C1.000033,67.000031 1.000033,34.000065 1.000017,1.000072 
	C97.666603,1.000048 194.333206,1.000048 290.999878,1.000024 
	C290.999908,33.999928 290.999908,66.999855 290.999939,99.999893 
	C268.833344,100.000000 246.666672,100.000000 224.000000,100.000000 
M4.454318,84.934845 
	C7.475761,88.436432 11.714802,89.085075 15.374813,87.497231 
	C19.190714,85.841759 21.196352,82.386345 21.126696,77.459244 
	C20.827776,56.315517 21.019039,35.165089 20.961767,14.017293 
	C20.956993,12.254401 20.819916,10.304020 20.073162,8.766773 
	C17.967388,4.431882 13.708839,2.576120 8.880485,4.093638 
	C4.569211,5.448641 2.033577,8.639259 2.025542,13.334192 
	C1.988773,34.815098 1.955053,56.296459 2.094524,77.776527 
	C2.108757,79.968636 3.287871,82.153175 4.454318,84.934845 
M214.965698,40.281712 
	C214.879105,39.790306 214.959793,39.150265 214.677582,38.832668 
	C213.299728,37.282036 211.825027,35.817467 210.384583,34.322456 
	C209.256119,35.945576 207.883469,37.456532 207.071152,39.224873 
	C206.329803,40.838650 206.195526,42.731297 205.793701,44.501041 
	C204.449615,42.260914 204.404251,39.903526 203.347061,38.159496 
	C202.320770,36.466484 200.292633,34.297417 198.641296,34.242668 
	C188.003540,33.889977 177.344360,33.916294 166.703552,34.217896 
	C165.155075,34.261787 162.485077,36.329380 162.359146,37.653183 
	C161.857529,42.926472 162.011703,48.283485 162.284729,53.590897 
	C162.338608,54.638245 163.992935,55.603264 164.909195,56.606251 
	C165.886658,55.674961 167.662567,54.777115 167.703217,53.806583 
	C167.877991,49.633801 169.771423,47.841732 173.890106,47.720734 
	C174.756577,47.695278 175.578171,46.141983 176.420456,45.292698 
	C175.605118,44.585285 174.886490,43.670845 173.945938,43.231525 
	C173.088760,42.831150 171.907715,43.144733 171.023911,42.774651 
	C170.239120,42.446022 169.666458,41.610783 169.000168,40.999168 
	C169.680573,40.397266 170.319778,39.340027 171.048645,39.274117 
	C173.856522,39.020184 176.695023,39.131031 179.518478,39.016426 
	C183.255646,38.864719 185.153488,40.499573 184.975693,44.337967 
	C184.929565,45.333668 184.798019,46.382004 185.034058,47.323872 
	C185.827942,50.491638 182.835495,56.333115 188.123337,56.209961 
	C193.140244,56.093109 190.218475,50.314213 190.963287,47.088444 
	C191.219467,45.978874 190.653656,44.565472 191.138626,43.647678 
	C192.014694,41.989689 193.398880,40.600189 194.570892,39.098572 
	C195.936340,40.217419 197.945984,41.069588 198.541168,42.507305 
	C200.058990,46.173775 200.786880,50.160881 202.180237,53.889126 
	C202.604477,55.024273 204.168335,56.444374 205.206680,56.441490 
	C206.269043,56.438538 207.801651,55.052639 208.288055,53.913322 
	C209.299454,51.544380 209.755463,48.938332 210.787384,45.155190 
	C211.706131,48.695534 212.066223,51.135788 213.009872,53.324444 
	C213.575531,54.636410 215.255188,56.583488 216.075836,56.422184 
	C217.489426,56.144337 219.283371,54.671310 219.755768,53.299683 
	C221.429413,48.440258 222.758286,43.444122 223.872833,38.423214 
	C224.139236,37.223095 223.070251,35.726543 222.615463,34.366337 
	C221.390472,35.208179 219.625977,35.784748 219.054138,36.947727 
	C217.905411,39.283962 217.407471,41.940174 216.331970,45.481827 
	C215.689484,43.213184 215.374527,42.101074 214.965698,40.281712 
M192.000000,75.486473 
	C192.000000,71.870071 192.000000,68.253670 192.000000,64.046341 
	C184.167679,64.046341 176.942123,63.970448 169.722534,64.143822 
	C168.834991,64.165131 167.370544,65.452675 167.281662,66.273460 
	C167.194122,67.081604 168.353943,68.313065 169.265686,68.859055 
	C170.153214,69.390526 171.419968,69.288734 173.000015,69.541855 
	C173.000015,72.417198 173.000015,75.043694 173.000015,77.670197 
	C173.000015,80.272949 173.000015,82.875694 173.000015,85.238411 
	C177.662903,86.859818 179.265930,85.516495 179.040710,81.360123 
	C178.828217,77.438568 178.995087,73.496452 178.995087,69.706314 
	C185.839615,68.530922 185.958969,68.618279 185.994446,74.601822 
	C186.015823,78.208504 185.998383,81.815422 185.998383,85.614349 
	C188.267487,85.614349 189.823639,85.614349 192.000000,85.614349 
	C192.000000,82.353989 192.000000,79.404266 192.000000,75.486473 
M246.001846,48.394337 
	C246.065918,50.222282 245.783234,52.160301 246.316208,53.839409 
	C246.670334,54.955021 248.081680,56.157017 249.231613,56.430870 
	C249.864288,56.581543 251.130127,55.014725 251.765549,54.005146 
	C252.883041,52.229664 253.735870,50.287609 254.699524,48.415306 
	C255.991913,50.258808 257.285461,52.101490 258.574249,53.947506 
	C258.668640,54.082695 258.689819,54.298035 258.810455,54.381367 
	C259.942871,55.163631 261.089539,55.925240 262.232117,56.692806 
	C262.842682,55.524864 263.858795,54.400230 263.989014,53.180988 
	C264.406647,49.270039 265.217468,45.178944 264.464874,41.441631 
	C263.945099,38.860523 261.546875,35.517910 259.197418,34.645924 
	C249.930939,31.206738 246.010757,34.242905 246.001175,43.935360 
	C246.000015,45.100262 246.001083,46.265160 246.001846,48.394337 
M127.000130,71.620201 
	C127.000130,76.232376 127.000130,80.844551 127.000130,85.596352 
	C129.300720,85.596352 130.862534,85.596352 132.716125,85.596352 
	C132.905777,82.101173 133.078812,78.911995 133.256424,75.638557 
	C138.403229,77.988785 136.714401,88.052650 145.977997,85.343544 
	C145.977997,79.315468 146.110306,73.344727 145.861038,67.389961 
	C145.813904,66.263550 144.250992,65.200577 143.387482,64.108337 
	C142.596481,65.274147 141.300797,66.367554 141.120972,67.621040 
	C140.761795,70.124687 141.014481,72.716110 141.014481,75.271278 
	C140.595734,75.364265 140.177002,75.457260 139.758255,75.550247 
	C138.208405,72.909454 136.541229,70.329231 135.138626,67.612411 
	C133.415588,64.274910 131.054260,63.096828 127.000420,64.856483 
	C127.000420,66.729515 127.000420,68.696571 127.000130,71.620201 
M159.145508,8.006773 
	C159.117493,12.661019 158.737656,17.353798 159.241013,21.949846 
	C159.432465,23.697971 161.399307,26.226788 163.004532,26.633526 
	C165.967239,27.384230 169.278122,27.014746 172.405746,26.714344 
	C173.414642,26.617441 174.303726,25.272993 175.247620,24.499245 
	C174.308228,23.722536 173.475296,22.527550 172.407410,22.255735 
	C170.148193,21.680691 167.766281,21.587694 165.434692,21.296986 
	C165.359787,20.635628 165.284882,19.974270 165.209991,19.312912 
	C167.217316,18.834320 169.278992,18.507996 171.211075,17.818529 
	C172.323349,17.421621 173.225922,16.437109 174.222885,15.717097 
	C173.208008,14.849378 172.316879,13.700618 171.146790,13.185390 
	C169.698517,12.547671 168.018814,12.435517 166.439102,12.096305 
	C166.481384,11.592837 166.523682,11.089370 166.565964,10.585902 
	C168.599548,10.319263 170.675858,10.219868 172.648773,9.715783 
	C173.642731,9.461829 174.759918,8.640262 175.231812,7.759484 
	C175.550461,7.164745 175.109497,5.764829 174.542984,5.163281 
	C172.141937,2.613704 161.602127,4.065822 159.145508,8.006773 
M152.741150,56.716358 
	C159.358276,53.729206 161.896515,46.995899 158.983093,40.158188 
	C156.644104,34.668663 150.729858,32.306419 144.790970,34.489643 
	C139.585236,36.403351 136.743347,43.676579 138.847137,49.701607 
	C140.801529,55.298698 144.175476,57.139740 152.741150,56.716358 
M155.992294,11.706371 
	C155.943985,10.542420 156.218628,9.230284 155.769028,8.250465 
	C155.148575,6.898248 153.981766,5.796718 153.048965,4.587813 
	C152.057495,5.698886 151.005737,6.762742 150.089539,7.932750 
	C148.891098,9.463168 147.799820,11.077498 146.662445,12.655728 
	C145.408752,11.020392 144.169296,9.373862 142.896347,7.753658 
	C142.048080,6.674000 141.152023,5.631887 140.277359,4.572973 
	C139.251282,5.678742 137.414001,6.732432 137.339096,7.899266 
	C137.009399,13.034612 137.037201,18.210487 137.305099,23.352421 
	C137.361557,24.436234 138.974411,25.438959 139.870148,26.479044 
	C140.874115,25.372921 142.389130,24.417608 142.769836,23.127562 
	C143.448334,20.828348 142.732452,17.906467 146.612732,17.973101 
	C150.152115,18.033878 149.578506,20.678596 150.189499,22.859230 
	C150.568039,24.210253 151.933548,25.284740 152.856018,26.483360 
	C153.870605,25.201813 155.566406,24.016165 155.763031,22.619465 
	C156.223221,19.350538 155.964523,15.980413 155.992294,11.706371 
M159.688004,78.430557 
	C159.639191,79.498940 159.590378,80.567314 159.541565,81.635696 
	C157.699509,81.377380 155.809830,81.294670 154.028702,80.811661 
	C152.225464,80.322670 150.529602,79.437706 148.208862,78.490288 
	C149.291687,85.448944 155.147324,88.654617 160.938660,86.466507 
	C163.942764,85.331482 167.016647,83.830017 166.849945,80.019691 
	C166.676117,76.046959 164.032257,73.900658 160.261658,73.013924 
	C158.231415,72.536469 156.230850,71.932739 153.665161,71.236198 
	C155.339798,67.193245 157.325821,67.965385 159.815277,69.696846 
	C161.415710,70.809967 163.319138,71.487411 165.722626,72.674080 
	C166.059616,65.817291 162.175400,64.248047 158.123627,63.224525 
	C154.217514,62.237797 148.792770,65.842186 148.091034,69.476990 
	C147.396088,73.076561 149.787842,75.842201 154.662003,77.070641 
	C156.098419,77.432663 157.536789,77.786964 159.688004,78.430557 
M125.772408,39.552734 
	C127.462242,39.893368 129.139648,40.336823 130.845734,40.542938 
	C132.277512,40.715923 133.742706,40.612175 135.193115,40.630947 
	C134.934860,39.251575 135.134094,37.469772 134.337372,36.564087 
	C131.262497,33.068722 126.941574,33.249989 123.328156,34.824261 
	C121.231735,35.737614 119.109695,38.744007 118.772820,41.065865 
	C118.192879,45.063057 121.712891,46.460972 125.048225,47.519897 
	C126.834755,48.087093 128.504166,49.023144 130.226440,49.792744 
	C129.929504,50.535961 129.632584,51.279175 129.335648,52.022388 
	C127.315903,51.306660 125.336769,50.412239 123.261551,49.940563 
	C121.965363,49.645950 120.524277,49.988865 119.148216,50.045700 
	C119.303925,51.267471 119.107277,52.696075 119.680573,53.672714 
	C121.491005,56.756866 127.306618,58.431313 131.413147,56.332329 
	C133.694550,55.166225 136.211472,52.378498 136.582809,50.002857 
	C137.297485,45.430672 133.098846,44.365803 129.599777,43.043472 
	C128.041794,42.454689 126.796631,41.038101 125.772408,39.552734 
M261.960236,69.026321 
	C263.622833,69.008018 265.362274,69.282402 266.922058,68.872681 
	C268.037872,68.579597 268.912781,67.369461 269.895203,66.568504 
	C268.956970,65.723457 268.144531,64.480934 267.048645,64.134178 
	C265.685272,63.702808 264.087830,64.003143 262.591461,64.001511 
	C253.000977,63.991013 253.000977,63.992279 253.000000,73.419167 
	C252.998611,86.703812 252.994904,86.614906 266.415924,86.056152 
	C269.485291,85.928368 270.504517,84.773376 270.013031,80.994682 
	C267.834839,80.994682 265.557312,81.251335 263.375641,80.904778 
	C261.912323,80.672318 260.584900,79.584663 259.196655,78.879662 
	C260.499359,78.255341 261.756195,77.483864 263.120911,77.058342 
	C264.033722,76.773712 265.254913,77.292152 266.059387,76.891533 
	C267.145905,76.350456 267.964783,75.271973 268.898499,74.424080 
	C267.914337,73.625366 267.038574,72.429291 265.919769,72.123962 
	C264.362549,71.698982 262.605377,72.066055 260.971252,71.832283 
	C260.368683,71.746078 259.872467,70.916344 259.327759,70.425735 
	C259.920074,69.976494 260.512390,69.527252 261.960236,69.026321 
M73.525711,21.084494 
	C77.251572,23.061867 81.312416,23.478270 83.968987,20.071117 
	C85.881050,17.618835 87.254402,13.894587 87.060081,10.853232 
	C86.774635,6.385886 82.896919,4.133473 78.637581,3.774882 
	C74.503777,3.426861 71.192841,5.345972 69.539230,9.345360 
	C67.627373,13.969336 68.990562,17.747017 73.525711,21.084494 
M53.894764,75.669876 
	C50.550457,69.703316 45.159912,67.596741 40.504040,70.436890 
	C36.061962,73.146622 34.284462,78.073250 36.219265,82.312820 
	C38.346069,86.973106 42.769215,89.038231 47.705952,87.675850 
	C52.567215,86.334297 54.848175,82.269562 53.894764,75.669876 
M279.189392,42.939140 
	C278.690338,42.931183 278.089233,43.100155 277.711334,42.882168 
	C276.569946,42.223782 275.515228,41.415123 274.426727,40.665043 
	C275.496216,40.120716 276.514191,39.363022 277.648956,39.088871 
	C278.918396,38.782185 280.392548,39.194176 281.593597,38.771111 
	C282.668549,38.392471 283.493286,37.303688 284.428436,36.528229 
	C283.507751,35.737980 282.639496,34.352741 281.656769,34.266083 
	C278.357391,33.975109 274.967987,33.817192 271.716522,34.302235 
	C270.390961,34.499981 268.398468,36.411644 268.311676,37.655357 
	C267.942200,42.949158 267.986572,48.296959 268.332001,53.595573 
	C268.406219,54.734528 270.265656,56.531361 271.465240,56.675835 
	C274.903809,57.089981 278.434998,56.947392 281.908386,56.710125 
	C282.777985,56.650726 283.566956,55.411331 284.393005,54.714260 
	C283.551636,53.867260 282.834961,52.788860 281.829254,52.246754 
	C281.030121,51.815979 279.780243,52.279613 278.903290,51.922173 
	C277.385651,51.303604 276.001953,50.356510 274.562073,49.547237 
	C275.966431,48.702637 277.347900,47.815350 278.790009,47.041058 
	C279.190643,46.825954 279.878448,47.115250 280.249146,46.880489 
	C281.382660,46.162678 282.425964,45.302456 283.504364,44.497646 
	C282.310211,43.973503 281.116089,43.449360 279.189392,42.939140 
M40.465137,54.094631 
	C44.272652,56.236458 48.273396,55.949558 50.996746,52.906334 
	C52.859871,50.824364 54.096096,47.329540 53.989822,44.527908 
	C53.810738,39.806904 50.253422,37.053211 45.676548,36.715904 
	C41.411865,36.401604 37.865234,38.363232 36.131218,42.532719 
	C34.174572,47.237518 35.786674,50.933849 40.465137,54.094631 
M75.490990,37.097511 
	C71.352654,38.323486 68.614159,41.334793 68.918831,45.364597 
	C69.138008,48.263622 70.946251,51.687904 73.144562,53.641014 
	C76.462990,56.589302 80.650772,55.770626 84.078720,53.044025 
	C87.378555,50.419327 88.613426,46.890549 86.942169,42.877075 
	C84.981689,38.169018 81.239952,36.277073 75.490990,37.097511 
M38.548374,19.956512 
	C41.725803,22.976208 45.630062,23.703773 48.956631,21.163870 
	C51.313847,19.364086 53.480240,16.221779 53.994377,13.365950 
	C54.702023,9.435219 52.658318,5.873260 48.412876,4.438305 
	C44.250385,3.031387 40.421738,3.701575 37.641850,7.266255 
	C34.484699,11.314709 34.440834,15.486108 38.548374,19.956512 
M232.940674,52.261360 
	C234.968292,53.311405 236.954346,54.455605 239.039124,55.376217 
	C240.292145,55.929550 241.699097,56.134296 243.036880,56.495701 
	C243.287994,55.307400 244.035019,53.956654 243.707825,52.957783 
	C241.900711,47.440956 240.038956,41.922062 237.775421,36.582127 
	C236.395584,33.326927 232.105804,33.116432 230.740097,36.287914 
	C228.015320,42.615479 225.876251,49.195263 223.539276,55.551205 
	C228.733551,58.880566 229.566132,53.610367 232.940674,52.261360 
M214.685837,64.149254 
	C214.345169,69.827606 213.283310,75.584564 213.890961,81.159554 
	C214.381165,85.657143 218.654922,87.185242 223.031601,86.956551 
	C227.184784,86.739517 230.650467,85.169159 231.153427,80.529327 
	C231.731812,75.193489 231.859085,69.808746 232.209747,63.989525 
	C229.553955,64.180641 227.994461,64.292862 225.999985,64.436386 
	C225.999985,67.530655 226.413971,70.255867 225.895340,72.790230 
	C225.244629,75.970055 228.772552,81.758972 222.375977,81.702888 
	C216.490158,81.651283 219.794952,76.111618 219.079987,73.040230 
	C218.638184,71.142303 219.391373,68.934364 218.825272,67.108299 
	C218.442993,65.875168 216.696640,65.064911 214.685837,64.149254 
M129.988480,20.313145 
	C130.111526,15.950862 129.135254,11.532844 134.535019,8.770638 
	C137.056152,7.480968 135.322708,4.608597 132.725433,4.340957 
	C128.775436,3.933923 124.738976,4.028228 120.772499,4.336884 
	C119.664574,4.423099 118.673561,6.011827 117.628922,6.911298 
	C118.579033,7.880914 119.416718,9.511058 120.500473,9.695530 
	C123.673004,10.235546 124.013847,12.256156 123.987350,14.770905 
	C123.966286,16.769453 123.653343,18.855028 124.115601,20.743967 
	C124.606400,22.749496 125.858498,24.568718 126.778130,26.469301 
	C127.842903,24.715994 128.907669,22.962687 129.988480,20.313145 
M199.999557,75.617851 
	C199.999557,78.896469 199.999557,82.175087 199.999557,85.592072 
	C202.299652,85.592072 203.859314,85.592072 205.909409,85.592072 
	C205.909409,80.005127 205.909409,74.741539 205.909409,69.470940 
	C208.124847,69.089546 209.862259,68.790443 213.279068,68.202232 
	C211.396942,66.244316 210.396759,64.268066 209.274612,64.196198 
	C204.014938,63.859318 198.721680,64.046494 193.490051,64.046494 
	C193.315689,68.198448 193.315689,68.198448 199.750168,69.874657 
	C199.829590,71.410591 199.914093,73.045029 199.999557,75.617851 
M240.577194,64.000130 
	C238.911591,64.018692 237.178589,63.765823 235.605316,64.156342 
	C234.642212,64.395409 233.302551,65.597389 233.270584,66.411652 
	C233.238449,67.229584 234.481522,68.337593 235.418930,68.884819 
	C236.321686,69.411827 237.548126,69.384346 239.237732,69.721161 
	C239.237732,75.156929 239.237732,80.390022 239.237732,86.000488 
	C241.495728,85.819733 243.050323,85.695290 245.229889,85.520813 
	C245.229889,79.833885 245.229889,74.603462 245.229889,69.364037 
	C246.705933,69.189407 247.658234,69.323120 248.318283,68.945709 
	C249.568420,68.230881 250.650879,67.222801 251.803009,66.336563 
	C250.541183,65.563019 249.357117,64.361763 247.999542,64.115021 
	C245.902130,63.733799 243.686050,64.005333 240.577194,64.000130 
M124.999252,70.716629 
	C124.905701,63.895897 124.819427,63.799973 119.331970,64.744797 
	C119.331970,71.606224 119.331970,78.510002 119.331970,85.401520 
	C123.158150,86.585938 125.095360,85.637558 125.003174,81.643913 
	C124.926399,78.317497 124.995346,74.987724 124.999252,70.716629 
z"/>
<path fill="#050607" opacity="1.000000" stroke="none" 
	d="
M4.190374,84.638039 
	C3.287871,82.153175 2.108757,79.968636 2.094524,77.776527 
	C1.955053,56.296459 1.988773,34.815098 2.025542,13.334192 
	C2.033577,8.639259 4.569211,5.448641 8.880485,4.093638 
	C13.708839,2.576120 17.967388,4.431882 20.073162,8.766773 
	C20.819916,10.304020 20.956993,12.254401 20.961767,14.017293 
	C21.019039,35.165089 20.827776,56.315517 21.126696,77.459244 
	C21.196352,82.386345 19.190714,85.841759 15.374813,87.497231 
	C11.714802,89.085075 7.475761,88.436432 4.190374,84.638039 
z"/>
<path fill="#343536" opacity="1.000000" stroke="none" 
	d="
M215.012634,40.635338 
	C215.374527,42.101074 215.689484,43.213184 216.331970,45.481827 
	C217.407471,41.940174 217.905411,39.283962 219.054138,36.947727 
	C219.625977,35.784748 221.390472,35.208179 222.615463,34.366333 
	C223.070251,35.726543 224.139236,37.223095 223.872833,38.423214 
	C222.758286,43.444122 221.429413,48.440258 219.755768,53.299683 
	C219.283371,54.671310 217.489426,56.144337 216.075836,56.422184 
	C215.255188,56.583488 213.575531,54.636410 213.009872,53.324444 
	C212.066223,51.135788 211.706131,48.695534 210.787384,45.155190 
	C209.755463,48.938332 209.299454,51.544380 208.288055,53.913322 
	C207.801651,55.052639 206.269043,56.438538 205.206680,56.441490 
	C204.168335,56.444374 202.604477,55.024273 202.180237,53.889126 
	C200.786880,50.160881 200.058990,46.173775 198.541168,42.507305 
	C197.945984,41.069588 195.936340,40.217419 194.570892,39.098572 
	C193.398880,40.600189 192.014694,41.989689 191.138626,43.647678 
	C190.653656,44.565472 191.219467,45.978874 190.963287,47.088444 
	C190.218475,50.314213 193.140244,56.093109 188.123337,56.209961 
	C182.835495,56.333115 185.827942,50.491638 185.034058,47.323872 
	C184.798019,46.382004 184.929565,45.333668 184.975693,44.337967 
	C185.153488,40.499573 183.255646,38.864719 179.518478,39.016426 
	C176.695023,39.131031 173.856522,39.020184 171.048645,39.274117 
	C170.319778,39.340027 169.680573,40.397266 169.000168,40.999165 
	C169.666458,41.610783 170.239120,42.446022 171.023911,42.774651 
	C171.907715,43.144733 173.088760,42.831150 173.945938,43.231525 
	C174.886490,43.670845 175.605118,44.585285 176.420456,45.292694 
	C175.578171,46.141983 174.756577,47.695278 173.890106,47.720734 
	C169.771423,47.841732 167.877991,49.633801 167.703217,53.806583 
	C167.662567,54.777115 165.886658,55.674961 164.909195,56.606255 
	C163.992935,55.603264 162.338608,54.638245 162.284729,53.590897 
	C162.011703,48.283485 161.857529,42.926472 162.359146,37.653183 
	C162.485077,36.329380 165.155075,34.261787 166.703552,34.217896 
	C177.344360,33.916294 188.003540,33.889977 198.641296,34.242668 
	C200.292633,34.297417 202.320770,36.466484 203.347061,38.159496 
	C204.404251,39.903526 204.449615,42.260914 205.793701,44.501041 
	C206.195526,42.731297 206.329803,40.838650 207.071152,39.224873 
	C207.883469,37.456532 209.256119,35.945576 210.384583,34.322456 
	C211.825027,35.817467 213.299728,37.282036 214.677582,38.832668 
	C214.959793,39.150265 214.879105,39.790306 215.012634,40.635338 
z"/>
<path fill="#050607" opacity="1.000000" stroke="none" 
	d="
M192.000000,75.970505 
	C192.000000,79.404266 192.000000,82.353989 192.000000,85.614349 
	C189.823639,85.614349 188.267487,85.614349 185.998383,85.614349 
	C185.998383,81.815422 186.015823,78.208504 185.994446,74.601822 
	C185.958969,68.618279 185.839615,68.530922 178.995087,69.706314 
	C178.995087,73.496452 178.828217,77.438568 179.040710,81.360123 
	C179.265930,85.516495 177.662903,86.859818 173.000015,85.238411 
	C173.000015,82.875694 173.000015,80.272949 173.000015,77.670197 
	C173.000015,75.043694 173.000015,72.417198 173.000015,69.541855 
	C171.419968,69.288734 170.153214,69.390526 169.265686,68.859055 
	C168.353943,68.313065 167.194122,67.081604 167.281662,66.273460 
	C167.370544,65.452675 168.834991,64.165131 169.722534,64.143822 
	C176.942123,63.970448 184.167679,64.046341 192.000000,64.046341 
	C192.000000,68.253670 192.000000,71.870071 192.000000,75.970505 
z"/>
<path fill="#343536" opacity="1.000000" stroke="none" 
	d="
M246.001495,47.912201 
	C246.001083,46.265160 246.000015,45.100262 246.001175,43.935360 
	C246.010757,34.242905 249.930939,31.206738 259.197418,34.645924 
	C261.546875,35.517910 263.945099,38.860523 264.464874,41.441631 
	C265.217468,45.178944 264.406647,49.270039 263.989014,53.180988 
	C263.858795,54.400230 262.842682,55.524864 262.232117,56.692810 
	C261.089539,55.925240 259.942871,55.163631 258.810455,54.381367 
	C258.689819,54.298035 258.668640,54.082695 258.574249,53.947506 
	C257.285461,52.101490 255.991913,50.258808 254.699524,48.415306 
	C253.735870,50.287609 252.883041,52.229664 251.765549,54.005146 
	C251.130127,55.014725 249.864288,56.581543 249.231613,56.430870 
	C248.081680,56.157017 246.670334,54.955021 246.316208,53.839409 
	C245.783234,52.160301 246.065918,50.222282 246.001495,47.912201 
M257.848297,42.755959 
	C259.018738,39.808018 257.185883,39.089317 254.951492,39.374420 
	C254.053711,39.488976 253.325546,40.932964 252.520172,41.771866 
	C254.132736,42.258389 255.745285,42.744907 257.848297,42.755959 
z"/>
<path fill="#050607" opacity="1.000000" stroke="none" 
	d="
M127.000275,71.141922 
	C127.000420,68.696571 127.000420,66.729515 127.000420,64.856483 
	C131.054260,63.096828 133.415588,64.274910 135.138626,67.612411 
	C136.541229,70.329231 138.208405,72.909454 139.758255,75.550247 
	C140.177002,75.457260 140.595734,75.364265 141.014481,75.271278 
	C141.014481,72.716110 140.761795,70.124687 141.120972,67.621040 
	C141.300797,66.367554 142.596481,65.274147 143.387482,64.108337 
	C144.250992,65.200577 145.813904,66.263550 145.861038,67.389961 
	C146.110306,73.344727 145.977997,79.315468 145.977997,85.343544 
	C136.714401,88.052650 138.403229,77.988785 133.256424,75.638557 
	C133.078812,78.911995 132.905777,82.101173 132.716125,85.596352 
	C130.862534,85.596352 129.300720,85.596352 127.000130,85.596352 
	C127.000130,80.844551 127.000130,76.232376 127.000275,71.141922 
z"/>
<path fill="#6B6B6B" opacity="1.000000" stroke="none" 
	d="
M159.220062,7.579299 
	C161.602127,4.065822 172.141937,2.613704 174.542984,5.163281 
	C175.109497,5.764829 175.550461,7.164745 175.231812,7.759484 
	C174.759918,8.640262 173.642731,9.461829 172.648773,9.715783 
	C170.675858,10.219868 168.599548,10.319263 166.565964,10.585902 
	C166.523682,11.089370 166.481384,11.592837 166.439102,12.096305 
	C168.018814,12.435517 169.698517,12.547671 171.146790,13.185390 
	C172.316879,13.700618 173.208008,14.849378 174.222885,15.717096 
	C173.225922,16.437109 172.323349,17.421621 171.211075,17.818529 
	C169.278992,18.507996 167.217316,18.834320 165.209991,19.312912 
	C165.284882,19.974270 165.359787,20.635628 165.434692,21.296986 
	C167.766281,21.587694 170.148193,21.680691 172.407410,22.255735 
	C173.475296,22.527550 174.308228,23.722536 175.247620,24.499245 
	C174.303726,25.272993 173.414642,26.617441 172.405746,26.714344 
	C169.278122,27.014746 165.967239,27.384230 163.004532,26.633526 
	C161.399307,26.226788 159.432465,23.697971 159.241013,21.949846 
	C158.737656,17.353798 159.117493,12.661019 159.220062,7.579299 
z"/>
<path fill="#343536" opacity="1.000000" stroke="none" 
	d="
M152.334839,56.777992 
	C144.175476,57.139740 140.801529,55.298698 138.847137,49.701607 
	C136.743347,43.676579 139.585236,36.403351 144.790970,34.489643 
	C150.729858,32.306419 156.644104,34.668663 158.983093,40.158188 
	C161.896515,46.995899 159.358276,53.729206 152.334839,56.777992 
M149.394989,51.799942 
	C153.539597,50.054222 155.386276,45.049835 153.229645,41.408165 
	C151.547729,38.568073 147.226883,38.371418 145.276154,41.046177 
	C142.579254,44.744087 144.199814,49.958473 149.394989,51.799942 
z"/>
<path fill="#6B6B6B" opacity="1.000000" stroke="none" 
	d="
M155.994598,12.178818 
	C155.964523,15.980413 156.223221,19.350538 155.763031,22.619465 
	C155.566406,24.016165 153.870605,25.201813 152.856018,26.483360 
	C151.933548,25.284740 150.568039,24.210253 150.189499,22.859230 
	C149.578506,20.678596 150.152115,18.033878 146.612732,17.973101 
	C142.732452,17.906467 143.448334,20.828348 142.769836,23.127562 
	C142.389130,24.417608 140.874115,25.372921 139.870148,26.479046 
	C138.974411,25.438959 137.361557,24.436234 137.305099,23.352421 
	C137.037201,18.210487 137.009399,13.034612 137.339096,7.899266 
	C137.414001,6.732432 139.251282,5.678742 140.277359,4.572971 
	C141.152023,5.631887 142.048080,6.674000 142.896347,7.753658 
	C144.169296,9.373862 145.408752,11.020392 146.662445,12.655729 
	C147.799820,11.077498 148.891098,9.463168 150.089539,7.932750 
	C151.005737,6.762742 152.057495,5.698886 153.048965,4.587814 
	C153.981766,5.796718 155.148575,6.898248 155.769028,8.250465 
	C156.218628,9.230284 155.943985,10.542420 155.994598,12.178818 
z"/>
<path fill="#050607" opacity="1.000000" stroke="none" 
	d="
M159.331146,78.287682 
	C157.536789,77.786964 156.098419,77.432663 154.662003,77.070641 
	C149.787842,75.842201 147.396088,73.076561 148.091034,69.476990 
	C148.792770,65.842186 154.217514,62.237797 158.123627,63.224525 
	C162.175400,64.248047 166.059616,65.817291 165.722626,72.674080 
	C163.319138,71.487411 161.415710,70.809967 159.815277,69.696846 
	C157.325821,67.965385 155.339798,67.193245 153.665161,71.236198 
	C156.230850,71.932739 158.231415,72.536469 160.261658,73.013924 
	C164.032257,73.900658 166.676117,76.046959 166.849945,80.019691 
	C167.016647,83.830017 163.942764,85.331482 160.938660,86.466507 
	C155.147324,88.654617 149.291687,85.448944 148.208862,78.490288 
	C150.529602,79.437706 152.225464,80.322670 154.028702,80.811661 
	C155.809830,81.294670 157.699509,81.377380 159.541565,81.635696 
	C159.590378,80.567314 159.639191,79.498940 159.331146,78.287682 
z"/>
<path fill="#343536" opacity="1.000000" stroke="none" 
	d="
M125.590942,39.774986 
	C126.796631,41.038101 128.041794,42.454689 129.599777,43.043472 
	C133.098846,44.365803 137.297485,45.430672 136.582809,50.002857 
	C136.211472,52.378498 133.694550,55.166225 131.413147,56.332329 
	C127.306618,58.431313 121.491005,56.756866 119.680573,53.672714 
	C119.107277,52.696075 119.303925,51.267471 119.148209,50.045700 
	C120.524277,49.988865 121.965363,49.645950 123.261551,49.940563 
	C125.336769,50.412239 127.315903,51.306660 129.335648,52.022388 
	C129.632584,51.279175 129.929504,50.535961 130.226440,49.792744 
	C128.504166,49.023144 126.834755,48.087093 125.048225,47.519897 
	C121.712891,46.460972 118.192879,45.063057 118.772820,41.065865 
	C119.109695,38.744007 121.231735,35.737614 123.328156,34.824261 
	C126.941574,33.249989 131.262497,33.068722 134.337372,36.564087 
	C135.134094,37.469772 134.934860,39.251575 135.193115,40.630947 
	C133.742706,40.612175 132.277512,40.715923 130.845734,40.542938 
	C129.139648,40.336823 127.462242,39.893368 125.590942,39.774986 
z"/>
<path fill="#050607" opacity="1.000000" stroke="none" 
	d="
M261.532471,69.052170 
	C260.512390,69.527252 259.920074,69.976494 259.327759,70.425735 
	C259.872467,70.916344 260.368683,71.746078 260.971252,71.832283 
	C262.605377,72.066055 264.362549,71.698982 265.919769,72.123962 
	C267.038574,72.429291 267.914337,73.625366 268.898499,74.424072 
	C267.964783,75.271973 267.145905,76.350456 266.059387,76.891533 
	C265.254913,77.292152 264.033722,76.773712 263.120911,77.058342 
	C261.756195,77.483864 260.499359,78.255341 259.196655,78.879654 
	C260.584900,79.584663 261.912323,80.672318 263.375641,80.904778 
	C265.557312,81.251335 267.834839,80.994682 270.013031,80.994682 
	C270.504517,84.773376 269.485291,85.928368 266.415924,86.056152 
	C252.994904,86.614906 252.998611,86.703812 253.000000,73.419167 
	C253.000977,63.992279 253.000977,63.991013 262.591461,64.001511 
	C264.087830,64.003143 265.685272,63.702808 267.048645,64.134178 
	C268.144531,64.480934 268.956970,65.723457 269.895203,66.568497 
	C268.912781,67.369461 268.037872,68.579597 266.922058,68.872681 
	C265.362274,69.282402 263.622833,69.008018 261.532471,69.052170 
z"/>
<path fill="#6A6A6A" opacity="1.000000" stroke="none" 
	d="
M73.200607,20.907085 
	C68.990562,17.747017 67.627373,13.969336 69.539230,9.345360 
	C71.192841,5.345972 74.503777,3.426861 78.637581,3.774882 
	C82.896919,4.133473 86.774635,6.385886 87.060081,10.853232 
	C87.254402,13.894587 85.881050,17.618835 83.968987,20.071117 
	C81.312416,23.478270 77.251572,23.061867 73.200607,20.907085 
z"/>
<path fill="#343536" opacity="1.000000" stroke="none" 
	d="
M53.963966,76.035217 
	C54.848175,82.269562 52.567215,86.334297 47.705952,87.675850 
	C42.769215,89.038231 38.346069,86.973106 36.219265,82.312820 
	C34.284462,78.073250 36.061962,73.146622 40.504040,70.436890 
	C45.159912,67.596741 50.550457,69.703316 53.963966,76.035217 
z"/>
<path fill="#343536" opacity="1.000000" stroke="none" 
	d="
M279.555664,42.932178 
	C281.116089,43.449360 282.310211,43.973503 283.504364,44.497643 
	C282.425964,45.302456 281.382660,46.162678 280.249146,46.880489 
	C279.878448,47.115250 279.190643,46.825954 278.790009,47.041058 
	C277.347900,47.815350 275.966431,48.702637 274.562073,49.547234 
	C276.001953,50.356510 277.385651,51.303604 278.903290,51.922173 
	C279.780243,52.279613 281.030121,51.815979 281.829254,52.246754 
	C282.834961,52.788860 283.551636,53.867260 284.393005,54.714256 
	C283.566956,55.411331 282.777985,56.650726 281.908386,56.710125 
	C278.434998,56.947392 274.903809,57.089981 271.465240,56.675835 
	C270.265656,56.531361 268.406219,54.734528 268.332001,53.595573 
	C267.986572,48.296959 267.942200,42.949158 268.311676,37.655357 
	C268.398468,36.411644 270.390961,34.499981 271.716522,34.302235 
	C274.967987,33.817192 278.357391,33.975109 281.656769,34.266083 
	C282.639496,34.352741 283.507751,35.737980 284.428436,36.528229 
	C283.493286,37.303688 282.668549,38.392471 281.593597,38.771111 
	C280.392548,39.194176 278.918396,38.782185 277.648956,39.088871 
	C276.514191,39.363022 275.496216,40.120716 274.426727,40.665047 
	C275.515228,41.415123 276.569946,42.223782 277.711334,42.882168 
	C278.089233,43.100155 278.690338,42.931183 279.555664,42.932178 
z"/>
<path fill="#343536" opacity="1.000000" stroke="none" 
	d="
M40.135490,53.929626 
	C35.786674,50.933849 34.174572,47.237518 36.131218,42.532719 
	C37.865234,38.363232 41.411865,36.401604 45.676548,36.715904 
	C50.253422,37.053211 53.810738,39.806904 53.989822,44.527908 
	C54.096096,47.329540 52.859871,50.824364 50.996746,52.906334 
	C48.273396,55.949558 44.272652,56.236458 40.135490,53.929626 
z"/>
<path fill="#6A6A6A" opacity="1.000000" stroke="none" 
	d="
M75.846359,37.006180 
	C81.239952,36.277073 84.981689,38.169018 86.942169,42.877075 
	C88.613426,46.890549 87.378555,50.419327 84.078720,53.044025 
	C80.650772,55.770626 76.462990,56.589302 73.144562,53.641014 
	C70.946251,51.687904 69.138008,48.263622 68.918831,45.364597 
	C68.614159,41.334793 71.352654,38.323486 75.846359,37.006180 
z"/>
<path fill="#343536" opacity="1.000000" stroke="none" 
	d="
M38.287254,19.694229 
	C34.440834,15.486108 34.484699,11.314709 37.641850,7.266255 
	C40.421738,3.701575 44.250385,3.031387 48.412876,4.438305 
	C52.658318,5.873260 54.702023,9.435219 53.994377,13.365950 
	C53.480240,16.221779 51.313847,19.364086 48.956631,21.163870 
	C45.630062,23.703773 41.725803,22.976208 38.287254,19.694229 
z"/>
<path fill="#343536" opacity="1.000000" stroke="none" 
	d="
M232.575348,52.355812 
	C229.566132,53.610367 228.733551,58.880566 223.539276,55.551205 
	C225.876251,49.195263 228.015320,42.615479 230.740097,36.287914 
	C232.105804,33.116432 236.395584,33.326927 237.775421,36.582127 
	C240.038956,41.922062 241.900711,47.440956 243.707825,52.957783 
	C244.035019,53.956654 243.287994,55.307400 243.036880,56.495701 
	C241.699097,56.134296 240.292145,55.929550 239.039124,55.376217 
	C236.954346,54.455605 234.968292,53.311405 232.575348,52.355812 
z"/>
<path fill="#050607" opacity="1.000000" stroke="none" 
	d="
M215.123138,64.107376 
	C216.696640,65.064911 218.442993,65.875168 218.825272,67.108299 
	C219.391373,68.934364 218.638184,71.142303 219.079987,73.040230 
	C219.794952,76.111618 216.490158,81.651283 222.375977,81.702888 
	C228.772552,81.758972 225.244629,75.970055 225.895340,72.790230 
	C226.413971,70.255867 225.999985,67.530655 225.999985,64.436386 
	C227.994461,64.292862 229.553955,64.180641 232.209747,63.989525 
	C231.859085,69.808746 231.731812,75.193489 231.153427,80.529327 
	C230.650467,85.169159 227.184784,86.739517 223.031601,86.956551 
	C218.654922,87.185242 214.381165,85.657143 213.890961,81.159554 
	C213.283310,75.584564 214.345169,69.827606 215.123138,64.107376 
z"/>
<path fill="#6B6B6B" opacity="1.000000" stroke="none" 
	d="
M129.980469,20.761261 
	C128.907669,22.962687 127.842903,24.715994 126.778130,26.469301 
	C125.858498,24.568718 124.606400,22.749496 124.115601,20.743967 
	C123.653343,18.855028 123.966286,16.769453 123.987350,14.770905 
	C124.013847,12.256156 123.673004,10.235546 120.500473,9.695530 
	C119.416718,9.511058 118.579033,7.880914 117.628922,6.911299 
	C118.673561,6.011827 119.664574,4.423099 120.772499,4.336884 
	C124.738976,4.028228 128.775436,3.933923 132.725433,4.340957 
	C135.322708,4.608597 137.056152,7.480968 134.535019,8.770638 
	C129.135254,11.532844 130.111526,15.950862 129.980469,20.761261 
z"/>
<path fill="#050607" opacity="1.000000" stroke="none" 
	d="
M199.999084,75.148666 
	C199.914093,73.045029 199.829590,71.410591 199.750168,69.874657 
	C193.315689,68.198448 193.315689,68.198448 193.490051,64.046494 
	C198.721680,64.046494 204.014938,63.859318 209.274612,64.196198 
	C210.396759,64.268066 211.396942,66.244316 213.279068,68.202232 
	C209.862259,68.790443 208.124847,69.089546 205.909409,69.470940 
	C205.909409,74.741539 205.909409,80.005127 205.909409,85.592072 
	C203.859314,85.592072 202.299652,85.592072 199.999557,85.592072 
	C199.999557,82.175087 199.999557,78.896469 199.999084,75.148666 
z"/>
<path fill="#050607" opacity="1.000000" stroke="none" 
	d="
M241.048752,64.000084 
	C243.686050,64.005333 245.902130,63.733799 247.999542,64.115021 
	C249.357117,64.361763 250.541183,65.563019 251.803009,66.336563 
	C250.650879,67.222801 249.568420,68.230881 248.318283,68.945709 
	C247.658234,69.323120 246.705933,69.189407 245.229889,69.364037 
	C245.229889,74.603462 245.229889,79.833885 245.229889,85.520813 
	C243.050323,85.695290 241.495728,85.819733 239.237732,86.000488 
	C239.237732,80.390022 239.237732,75.156929 239.237732,69.721161 
	C237.548126,69.384346 236.321686,69.411827 235.418930,68.884819 
	C234.481522,68.337593 233.238449,67.229584 233.270584,66.411652 
	C233.302551,65.597389 234.642212,64.395409 235.605316,64.156342 
	C237.178589,63.765823 238.911591,64.018692 241.048752,64.000084 
z"/>
<path fill="#050607" opacity="1.000000" stroke="none" 
	d="
M124.999496,71.188034 
	C124.995346,74.987724 124.926399,78.317497 125.003174,81.643913 
	C125.095360,85.637558 123.158150,86.585938 119.331970,85.401520 
	C119.331970,78.510002 119.331970,71.606224 119.331970,64.744797 
	C124.819427,63.799973 124.905701,63.895897 124.999496,71.188034 
z"/>
<path fill="#47704C" opacity="1.000000" stroke="none" 
	d="
M257.603088,42.993694 
	C255.745285,42.744907 254.132736,42.258389 252.520172,41.771866 
	C253.325546,40.932964 254.053711,39.488976 254.951492,39.374420 
	C257.185883,39.089317 259.018738,39.808018 257.603088,42.993694 
z"/>
<path fill="#47704C" opacity="1.000000" stroke="none" 
	d="
M149.006592,51.799812 
	C144.199814,49.958473 142.579254,44.744087 145.276154,41.046177 
	C147.226883,38.371418 151.547729,38.568073 153.229645,41.408165 
	C155.386276,45.049835 153.539597,50.054222 149.006592,51.799812 
z"/>
</svg>